PathFileType	4	(x/y/z)	S09_M20_T07
DataRate	CameraRate	NumFrames	NumMarkers	Units	OrigDataRate	OrigDataStartFrame	OrigNumFrames
240	240	4	51	mm	240	428	570
Frame#	Time	Sternum			R.Acromium			L.Acromium			Top.Head			R.ASIS			L.ASIS			R.PSIS			L.PSIS			R.Great.Tro			L.Great.Tro			R.Iliac.Crest			L.Iliac.Crest			V.Sacral			R.Thigh.Upper.Post			R.Thigh.Lower.Ant			R.Thigh.Lower.Post			R.Thigh.Upper.Ant			R.Knee.Lat			R.Knee.Med			R.Shank.Upper.Post			R.Shank.Lower.Ant			R.Shank.Lower.Post			R.Shank.Upper.Ant			R.Ankle.Lat			R.Ankle.Med			R.Heel.Upper			R.Heel.Med			R.Heel.Lat			R.Toe.Lat			R.Toe.Med			R.Toe.Tip			L.Thigh.Upper.Post			L.Thigh.Lower.Ant			L.Thigh.Lower.Post			L.Thigh.Upper.Ant			L.Knee.Lat			L.Knee.Med			L.Shank.Upper.Post			L.Shank.Lower.Ant			L.Shank.Lower.Post			L.Shank.Upper.Ant			L.Ankle.Lat			L.Ankle.Med			L.Heel.Upper			L.Heel.Med			L.Heel.Lat			L.Toe.Lat			L.Toe.Med			L.Toe.Tip			Cervical.Spine			Back			
		X1	Y1	Z1	X2	Y2	Z2	X3	Y3	Z3	X4	Y4	Z4	X5	Y5	Z5	X6	Y6	Z6	X7	Y7	Z7	X8	Y8	Z8	X9	Y9	Z9	X10	Y10	Z10	X11	Y11	Z11	X12	Y12	Z12	X13	Y13	Z13	X14	Y14	Z14	X15	Y15	Z15	X16	Y16	Z16	X17	Y17	Z17	X18	Y18	Z18	X19	Y19	Z19	X20	Y20	Z20	X21	Y21	Z21	X22	Y22	Z22	X23	Y23	Z23	X24	Y24	Z24	X25	Y25	Z25	X26	Y26	Z26	X27	Y27	Z27	X28	Y28	Z28	X29	Y29	Z29	X30	Y30	Z30	X31	Y31	Z31	X32	Y32	Z32	X33	Y33	Z33	X34	Y34	Z34	X35	Y35	Z35	X36	Y36	Z36	X37	Y37	Z37	X38	Y38	Z38	X39	Y39	Z39	X40	Y40	Z40	X41	Y41	Z41	X42	Y42	Z42	X43	Y43	Z43	X44	Y44	Z44	X45	Y45	Z45	X46	Y46	Z46	X47	Y47	Z47	X48	Y48	Z48	X49	Y49	Z49	X50	Y50	Z50	X51	Y51	Z51	

428	1.7792	1381.2	1167.1	266.26	1232.8	1404	410.82	1234.4	1406.2	103.41	1186	1697.3	245.32	1333.6	988.31	377.61	1366.8	1005.5	132.25	1123.9	1007.3	269.27	1142.1	1014.3	180.78	1238.5	895.49	434.22	1316.6	913.98	53.204	1235.5	1061.6	411.47	1253.4	1093.3	84.666	1116.1	975.24	215.62	1227	651.59	430.53	1298.7	543.95	424.38	1221.2	557.82	414.62	1297	634.51	436.97	1259	467.95	419.9	1279.8	445.38	300.11	1081.8	417.13	398.69	1071.9	326.53	398.89	1020.6	373.49	381.85	1127.2	373.24	414.56	884.7	248.66	355.9	929.82	213.71	284.58	855.65	280.97	283.43	841.83	250.5	254.03	819.75	269.86	312.07	863.41	138.96	408.67	922.63	84.956	329.36	942.87	60.688	387.73	1325.5	644.53	111.41	1430.8	577.44	127.53	1363.3	566.32	139.58	1395.7	653.46	95.506	1434.6	500.4	142.7	1438.8	523.24	275.34	1387.4	373.28	130.57	1443.9	280.57	152.83	1382.1	296.62	138.58	1447.9	358.45	145.15	1381.5	100.68	166.97	1394.2	97.498	260.84	1311.1	69.805	221.87	1324.3	46.753	253.72	1310.8	39.647	194.48	1481.2	43.67	137.85	1521.6	48.469	245.94	1569.1	68.458	185.6	NaN	NaN	NaN	1120	1178.1	245.23
429	1.7833	1385.8	1168	266.14	1237.2	1404.8	410.52	1239.3	1407.3	103.08	1191	1698.3	245.18	1338	989.48	377.39	1371.4	1006.3	132.03	1128.4	1008.3	268.71	1146.7	1015.4	180.24	1243.3	896.38	433.74	1320.9	914.71	52.975	1239.6	1062.6	411.06	1258.5	1094.3	84.269	1120.6	976.28	215.03	1235.1	652.31	430.64	1308	545.49	424.49	1230.3	558.47	414.86	1305.3	636.04	436.97	1269.1	469.09	420.11	1290.1	446.59	300.23	1092.3	417.44	398.16	1082.9	326.81	399.09	1031.4	373.32	381.47	1137.8	373.96	414.59	896.3	247.32	355.83	941.97	212.6	284.74	866.4	278.55	283.15	853.08	247.53	254.07	830.79	267.01	311.99	877.27	137.87	409.66	937.3	84.293	330.68	958.2	61.059	389.21	1328.3	645.16	111.14	1433.2	577.45	127.35	1365.6	566.72	139.36	1398.6	653.68	95.357	1436.4	500.29	142.55	1440.7	523.17	275.13	1388.6	373.24	130.45	1444.8	280.35	152.73	1383	296.61	138.51	1449.1	358.21	145	1381.7	100.74	166.99	1394.4	97.522	260.86	1311.2	69.909	221.92	1324.4	46.819	253.73	1310.8	39.782	194.47	1481.2	43.613	137.84	1521.6	48.185	245.99	1569.2	68.084	185.66	NaN	NaN	NaN	1124.6	1179.2	244.34
430	1.7875	1390.2	1168.9	266.04	1241.7	1405.7	410.23	1244.2	1408.4	102.76	1196	1699.3	245.05	1342.4	990.63	377.16	1376	1007.2	131.8	1132.8	1009.2	268.21	1151.2	1016.4	179.76	1248.1	897.28	433.32	1325.3	915.45	52.744	1243.8	1063.6	410.69	1263.5	1095.2	83.901	1125.1	977.31	214.52	1243.2	653.04	430.77	1317.3	547.08	424.59	1239.5	559.15	415.09	1313.6	637.6	436.97	1279.2	470.28	420.28	1300.3	447.86	300.32	1102.8	417.71	397.6	1093.9	327.06	399.29	1042.3	373.09	381.07	1148.5	374.67	414.63	908.03	245.82	355.82	954.26	211.35	284.93	877.29	275.93	282.94	864.5	244.39	254.18	841.98	263.96	311.97	891.28	136.64	410.66	952.13	83.54	331.99	973.68	61.343	390.68	1331	645.82	110.82	1435.5	577.47	127.15	1367.9	567.14	139.1	1401.5	653.92	95.184	1438.3	500.2	142.37	1442.5	523.11	274.9	1389.8	373.21	130.31	1445.7	280.15	152.6	1383.9	296.61	138.43	1450.2	357.98	144.83	1381.9	100.81	166.99	1394.5	97.557	260.86	1311.3	70.01	221.96	1324.4	46.89	253.73	1310.8	39.916	194.45	1481.3	43.55	137.82	1521.7	47.925	246.02	1569.4	67.723	185.7	NaN	NaN	NaN	1129.2	1180.3	243.47
431	1.7917	1394.7	1169.8	265.94	1246.1	1406.5	409.94	1249.1	1409.4	102.44	1201	1700.3	244.92	1346.8	991.77	376.91	1380.5	1008.1	131.54	1137.3	1010.2	267.78	1155.7	1017.5	179.35	1252.9	898.17	432.93	1329.6	916.2	52.509	1248	1064.5	410.36	1268.4	1096.1	83.56	1129.5	978.33	214.08	1251.2	653.8	430.9	1326.6	548.7	424.65	1248.6	559.87	415.3	1321.8	639.18	436.98	1289.3	471.52	420.41	1310.6	449.2	300.38	1113.4	417.94	397.03	1105	327.27	399.5	1053.2	372.79	380.65	1159.2	375.37	414.67	919.89	244.14	355.85	966.69	209.97	285.16	888.32	273.13	282.8	876.08	241.08	254.35	853.32	260.72	312.02	905.43	135.28	411.68	967.12	82.706	333.31	989.29	61.55	392.12	1333.6	646.49	110.47	1437.7	577.5	126.93	1370.1	567.56	138.8	1404.3	654.17	94.988	1440	500.12	142.17	1444.3	523.05	274.64	1390.9	373.18	130.15	1446.6	279.95	152.44	1384.8	296.6	138.32	1451.3	357.77	144.63	1382.1	100.87	166.99	1394.7	97.602	260.84	1311.3	70.11	221.98	1324.4	46.965	253.73	1310.9	40.05	194.44	1481.4	43.48	137.79	1521.8	47.689	246.04	1569.5	67.377	185.72	NaN	NaN	NaN	1133.8	1181.4	242.63
